<?xml version="1.0" encoding="utf-8"?>
<!-- Generator: Adobe Illustrator 18.1.1, SVG Export Plug-In . SVG Version: 6.00 Build 0)  -->
<svg version="1.1" id="Layer_1" xmlns="http://www.w3.org/2000/svg" xmlns:xlink="http://www.w3.org/1999/xlink" x="0px" y="0px"
	 viewBox="0 0 216 72" enable-background="new 0 0 216 72" xml:space="preserve">
<path fill="#FFFFFF" d="M187.1,22.5v-0.2c0-3.9-3.1-6.2-9.1-6.2h-14.7v12.7h14.3C183.7,28.7,187.1,26.7,187.1,22.5"/>
<path fill="#FFFFFF" d="M216,0h-31.4c8,0.3,13.8,2.5,17.7,6.5c2.9,2.9,4.6,6.7,4.6,11.7v0.2c0,8.4-4.8,13.3-11.2,16.1
	c8.8,2.9,14.4,7.8,14.4,17.6v0.2c0,11.3-8.4,18.5-22.9,19.7H216"/>
<path fill="#FFFFFF" d="M190.1,49.5v-0.2c0-3.9-3.1-6.5-9.8-6.5h-17v13.3h17.2C186.6,56.1,190.1,53.7,190.1,49.5"/>
<path fill="#FFFFFF" d="M108.4,0c17.1,0.7,28,9.9,28,25.3v0.2c0,17-13.1,26-31.1,26H91.2V72H144V0H108.4z M116.4,26.5v-0.2
	c0-6.2-4.3-9.5-11.6-9.5H91.2v19.1H105C112.1,35.9,116.4,32.2,116.4,26.5"/>
<path fill="#FFFFFF" d="M0,54.9V72h25C14.4,70.2,5.4,63.7,0,54.9 M37,0c17.4,2.8,30.8,17.8,30.8,36.1c0,18-13,33-30.2,35.9H72V0H37z
	 M25.5,0H0v17.2C5.4,8.2,14.7,1.7,25.5,0 M48.6,36.1c0-9.5-7.7-17.3-17.3-17.3c-9.5,0-17.3,7.7-17.3,17.3c0,9.5,7.7,17.3,17.3,17.3
	C40.8,53.3,48.6,45.6,48.6,36.1"/>
</svg>
